name analog
datacolumns 19
datarows 28
range 0.4890000000000002 0.5025000000000002
endheader
time	ground_force_vx	ground_force_vy	ground_force_vz	ground_force_px	ground_force_py	ground_force_pz	l_ground_force_vx	l_ground_force_vy	l_ground_force_vz	l_ground_force_px	l_ground_force_py	l_ground_force_pz	ground_torque_x	ground_torque_y	ground_torque_z	l_ground_torque_x	l_ground_torque_y	l_ground_torque_z
0.4890000000000002	-0.0	-0.0	-0.0	3.608828067779541	0.0853283405303955	-785.8253173828125	-0.0	-0.0	-0.0	-0.0	-0.0	-0.0	-0.0	-0.0	-0.0	-0.0	-0.0	-0.0
0.4895000000000002	-0.0	-0.0	-0.0	3.3834712505340576	0.4333849549293518	-786.641845703125	-0.0	-0.0	-0.0	-0.0	-0.0	-0.0	-0.0	-0.0	-0.0	-0.0	-0.0	-0.0
0.4900000000000002	-0.0	-0.0	-0.0	3.0825624465942383	1.3122756481170654	-784.9722900390625	-0.0	-0.0	-0.0	-0.0	-0.0	-0.0	-0.0	-0.0	-0.0	-0.0	-0.0	-0.0
0.4905000000000002	-0.0	-0.0	-0.0	3.491626262664795	1.4757071733474731	-781.4306030273438	-0.0	-0.0	-0.0	-0.0	-0.0	-0.0	-0.0	-0.0	-0.0	-0.0	-0.0	-0.0
0.4910000000000002	-0.0	-0.0	-0.0	2.8797237873077397	2.3173904418945312	-779.9627685546875	-0.0	-0.0	-0.0	-0.0	-0.0	-0.0	-0.0	-0.0	-0.0	-0.0	-0.0	-0.0
0.4915000000000002	-0.0	-0.0	-0.0	3.0331573486328125	2.32993745803833	-780.2738647460938	-0.0	-0.0	-0.0	-0.0	-0.0	-0.0	-0.0	-0.0	-0.0	-0.0	-0.0	-0.0
0.4920000000000002	-0.0	-0.0	-0.0	2.7394936084747314	2.0752477645874023	-778.00537109375	-5.6487717628479	-0.3852051496505737	-18.27342796325684	-0.0	-0.0	-0.0	-0.0	-0.0	-0.0	6426.2626953125	2635.343017578125	-2332.890380859375
0.4925000000000002	-0.0	-0.0	-0.0	3.0204482078552246	2.202617645263672	-777.2997436523438	-5.711699962615967	-0.4416084289550781	-21.128623962402344	-0.0	-0.0	-0.0	-0.0	-0.0	-0.0	7887.00048828125	3369.33935546875	-2403.1484375
0.4930000000000002	-0.0	-0.0	-0.0	2.6763153076171875	1.93554949760437	-774.9779663085938	-5.465665817260742	-0.6296690702438354	-24.654359817504883	-0.0	-0.0	-0.0	-0.0	-0.0	-0.0	8772.89453125	3789.142578125	-2117.86328125
0.4935000000000002	-0.0	-0.0	-0.0	3.095919132232666	2.189741611480713	-773.5658569335938	-4.647594451904297	-0.9830324053764344	-26.39920997619629	-0.0	-0.0	-0.0	-0.0	-0.0	-0.0	9562.419921875	3960.82421875	-1976.8231201171875
0.4940000000000002	-0.0	-0.0	-0.0	2.6000289916992188	2.2528281211853027	-771.0941162109375	-4.458773612976074	-0.9484061002731324	-28.4184513092041	-0.0	-0.0	-0.0	-0.0	-0.0	-0.0	10322.603515625	4320.9541015625	-1965.1231689453125
0.4945000000000002	-0.0	-0.0	-0.0	3.209866523742676	1.986823320388794	-770.137939453125	-4.24643611907959	-1.47820782661438	-32.241214752197266	-0.0	-0.0	-0.0	-0.0	-0.0	-0.0	11152.0830078125	4675.1669921875	-1961.22216796875
0.4950000000000002	-0.0	-0.0	-0.0	3.492276191711426	1.7065321207046509	-769.9839477539062	-4.559525489807129	-2.084599494934082	-34.380889892578125	-0.0	-0.0	-0.0	-0.0	-0.0	-0.0	12154.84375	5093.03369140625	-2020.927001953125
0.4955000000000002	-0.0	-0.0	-0.0	3.452948093414306	1.75907301902771	-767.813232421875	-4.908689498901367	-1.9901610612869265	-36.03256988525391	-0.0	-0.0	-0.0	-0.0	-0.0	-0.0	13026.615234375	5686.79541015625	-2135.85400390625
0.4960000000000002	-0.0	-0.0	-0.0	4.2424798011779785	1.4920681715011597	-767.9049072265625	-5.085726737976074	-2.6851933002471924	-37.24424743652344	-0.0	-0.0	-0.0	-0.0	-0.0	-0.0	14086.8759765625	6095.97265625	-2349.568115234375
0.4965000000000002	-0.0	-0.0	-0.0	4.411159992218018	1.617616891860962	-765.694091796875	-4.879093170166016	-2.955256462097168	-42.75715637207031	-0.0	-0.0	-0.0	-0.0	-0.0	-0.0	14573.0029296875	6531.51513671875	-2270.6982421875
0.4970000000000002	-0.0	-0.0	-0.0	4.714810848236084	1.2878278493881226	-765.1295776367188	-4.814455986022949	-3.661574602127075	-43.89835357666016	-0.0	-0.0	-0.0	-0.0	-0.0	-0.0	15642.55859375	6810.3701171875	-2242.72119140625
0.4975000000000002	-0.0	-0.0	-0.0	4.977611541748047	1.0695648193359375	-761.3684692382812	-4.407397270202637	-3.809893131256104	-46.53252029418945	-0.0	-0.0	-0.0	-0.0	-0.0	-0.0	16618.93359375	7155.9814453125	-2296.334716796875
0.4980000000000002	-0.0	-0.0	-0.0	5.360861778259277	1.0425958633422852	-762.2483520507812	-4.459912300109863	-4.391818046569824	-47.772403717041016	-0.0	-0.0	-0.0	-0.0	-0.0	-0.0	17405.0078125	7420.279296875	-2237.240478515625
0.4985000000000002	-0.0	-0.0	-0.0	5.187770366668701	0.7615272998809814	-759.283203125	-4.092946529388428	-4.693246364593506	-51.578006744384766	-0.0	-0.0	-0.0	-0.0	-0.0	-0.0	18216.3984375	7914.8232421875	-2449.83251953125
0.4990000000000002	-0.0	-0.0	-0.0	5.379907131195068	0.6857911348342896	-757.2177734375	-4.270444869995117	-5.235526084899902	-52.02359008789063	-0.0	-0.0	-0.0	-0.0	-0.0	-0.0	19132.21484375	8195.8818359375	-2432.69580078125
0.4995000000000002	-0.0	-0.0	-0.0	5.96339225769043	0.8091074824333191	-752.8978881835938	-4.384029865264893	-5.588958263397217	-56.86290740966797	-0.0	-0.0	-0.0	-0.0	-0.0	-0.0	19909.01953125	8606.0712890625	-2457.7216796875
0.5000000000000002	-0.0	-0.0	-0.0	5.85383939743042	1.2267425060272217	-750.7802734375	-4.460494041442871	-6.094196319580078	-59.459381103515625	-0.0	-0.0	-0.0	-0.0	-0.0	-0.0	20778.5703125	9325.962890625	-2500.671875
0.5005000000000002	-0.0	-0.0	-0.0	5.518875598907471	1.2616668939590454	-749.31396484375	-4.371912002563477	-6.270839691162109	-62.89665222167969	-0.0	-0.0	-0.0	-0.0	-0.0	-0.0	21894.41015625	9456.0927734375	-2577.085693359375
0.5010000000000002	-0.0	-0.0	-0.0	5.263420104980469	1.1726014614105225	-747.5717163085938	-4.473824977874756	-6.611575603485107	-63.5933723449707	-0.0	-0.0	-0.0	-0.0	-0.0	-0.0	22903.90625	9982.2802734375	-2661.978515625
0.5015000000000003	-0.0	-0.0	-0.0	5.644726753234863	1.2478256225585938	-743.4991455078125	-4.384878158569336	-6.863836288452148	-68.48335266113281	-0.0	-0.0	-0.0	-0.0	-0.0	-0.0	23713.421875	10279.1513671875	-2801.740234375
0.5020000000000002	-0.0	-0.0	-0.0	4.845506191253662	1.468256592750549	-740.0980224609375	-4.524250030517578	-7.015513896942139	-69.28263854980469	-0.0	-0.0	-0.0	-0.0	-0.0	-0.0	24722.021484375	10529.287109375	-2823.08349609375
0.5025000000000002	-0.0	-0.0	-0.0	5.070865154266357	1.787012219429016	-734.6142578125	-5.056514739990234	-7.356227874755859	-72.32484436035156	-0.0	-0.0	-0.0	-0.0	-0.0	-0.0	25299.736328125	10816.7099609375	-2946.491455078125
